<?xml version="1.0" encoding="utf-8"?>
<!-- Generator: Adobe Illustrator 19.0.0, SVG Export Plug-In . SVG Version: 6.00 Build 0)  -->
<svg version="1.1" id="Capa_1" xmlns="http://www.w3.org/2000/svg" xmlns:xlink="http://www.w3.org/1999/xlink" x="0px" y="0px"
	 viewBox="380.1 233.7 611.9 327.3" style="enable-background:new 380.1 233.7 611.9 327.3;" xml:space="preserve">
<style type="text/css">
	.st0{fill:#050206;}
</style>
<path id="XMLID_83_" class="st0" d="M916.8,502.1c-9.8,0-23.1-7.8-23.6-8.1l-0.7-0.4l-0.4-0.5c-1.7-2.1-41.8-51.9-33.6-142.6
	c0.7-7.7-0.7-10.9-1.9-12.2c-0.7-0.7-1.7-1.6-4.6-1.6c-9.2,0-25.9,8.6-45.3,18.7c-26.6,13.8-59.5,30.8-93.1,36.8
	c-7,8-17.1,12.5-27.8,12.5c-10.6,0-20.7-4.5-27.8-12.5c-33.6-6-66.5-23-93.1-36.8c-19.4-10.1-36.1-18.7-45.2-18.7
	c-2.9,0-4,0.9-4.6,1.6c-1.2,1.3-2.5,4.5-1.9,12.2c8.4,90.7-31.9,140.5-33.5,142.6l-0.4,0.5L479,494c-0.5,0.4-13.8,8.1-23.6,8.1
	c-3.7,0-6.8-1.1-8.9-3.2c-7-6.9-9.6-17-6.4-24.8c2.9-7,11.2-15.5,34-16.2c13.8-49.7,12.1-87.5-5-106.9c-6-3.7-15.9-17-18.5-25.8
	c-3.1-10.4,2-15.5,5.3-17.7c2.5-1.6,5.3-2.4,8.6-2.4c4.2,0,8.8,1.3,13.1,2.7c4.1,1.2,8.5,2.5,12.3,2.5c3.1,0,5.6-0.8,7.7-2.7
	c5.2-4.1,11.4-6.1,19.3-6.1c15.1,0,34.4,7.7,54.7,15.9c23.9,9.7,50.9,20.6,75.6,20.6c7.3,0,14.2-0.9,20.5-2.9
	c1.5-0.4,3.2-1.1,4.8-1.6c4.8-1.6,9.7-3.3,13.4-3.3s8.6,1.7,13.4,3.3c1.7,0.5,3.3,1.2,4.8,1.6c6.2,1.9,13.1,2.9,20.5,2.9
	c24.7,0,51.7-10.9,75.6-20.6c20.3-8.2,39.4-15.9,54.7-15.9c7.8,0,14.2,2,19.3,6.1c2.3,1.7,4.6,2.7,7.7,2.7c3.9,0,8.1-1.3,12.3-2.5
	c4.4-1.3,8.9-2.7,13.1-2.7c3.3,0,6.2,0.8,8.6,2.4c3.3,2.1,8.4,7.3,5.3,17.7c-2.5,8.5-12.5,21.9-18.5,25.8
	c-17.3,19.4-19,57.2-5.2,107c22.8,0.7,31.1,9,34,16.2c3.3,8,0.7,17.9-6.4,24.8C923.6,501,920.6,502.1,916.8,502.1L916.8,502.1z"/>
</svg>
